<svg xmlns="http://www.w3.org/2000/svg" xmlns:xlink="http://www.w3.org/1999/xlink" version="1.1" x="0px" y="0px"
    viewBox="0 0 88.26143010499602 44.21281502908084" enable-background="new 0 0 100 100" xml:space="preserve"
    width="88.26143010499602" height="44.21281502908084"
    style="position: absolute; inset: 0px; width: 70px; height: 35.0651px; display: block; margin: auto;">
    <path transform="translate(-5.86856989500397,-27.892)"
        d="M94.13,57.687c-1.197,-1.951 -12.636,1.374 -14.01,-0.333l2.438,-1.397c-0.887,-1.529 -16.626,-1.796 -16.028,-2.062c0.066,-0.355 2.904,-2.438 4.012,-2.328l-7.404,-1.529c-0.798,-0.155 -6.362,0.022 -8.646,-2.882c-1.552,-2.549 -4.944,-12.414 -6.628,-19.264c-6.429,2.505 -7.692,8.202 -11.594,12.392c-10.353,4.279 -11.505,5.188 -12.746,6.495c-4.522,1.286 -12.636,1.441 -13.611,3.835c-3.724,0.244 -4.855,1.397 -3.481,3.525c1.884,2.306 3.835,3.392 7.227,3.879c0.909,-0.199 3.813,3.015 5.143,3.591c-0.554,-0.997 -2.217,-4.079 -1.153,-4.279c6.096,-0.266 10.53,0.843 11.106,1.441c-4.5,-0.355 -4.456,5.941 -8.668,6.274c-2.173,0.266 -2.572,0.399 -3.48,0.111c-1.618,-0.244 -0.709,1.286 1.84,1.818c0.443,0.266 4.677,0.377 9.687,-2.35c2.173,-1.84 3.769,-1.508 4.766,-0.399c1.286,1.242 0.953,1.751 1.751,3.126l0.089,-0.931c0.089,-0.953 0.909,0.51 1.131,0.82c1.751,2.527 3.481,5.763 2.948,4.633c0.599,-2.305 -3.99,-9.111 -5.01,-11.416c-1.352,-1.951 -5.808,-5.897 -7.515,-5.941c-4.389,-0.266 -8.912,1.22 -12.791,-0.687c-2.616,-1.906 -3.104,-3.303 1.131,-4.256l2.35,-0.266c3.014,-0.333 6.029,-0.155 9.044,0.222c1.951,-2.062 2.86,-3.547 3.658,-3.88c2.35,0.355 3.214,3.813 0.753,3.88l-2.505,-0.266c-0.376,0.444 -0.111,0.887 0.555,1.33c4.877,2.527 9.798,3.369 14.808,1.773c1.086,-0.266 0.599,-0.576 0.177,-0.865c-2.328,-1.086 -6.983,-4.633 -6.362,-5.231c-0.089,-2.727 4.212,-10.951 8.357,-15.207c-0.355,2.549 -0.731,5.897 0.532,9.333c3.17,8.801 3.857,16.205 0.133,19.885l9.865,9.222l38.131,-11.816z"
        fill="#EE4949" class="fill c1"></path>
</svg>


