<svg width="21" height="21" viewBox="0 0 21 21" fill="none" xmlns="http://www.w3.org/2000/svg">
<path fill-rule="evenodd" clip-rule="evenodd" d="M10.25 1.50012C5.425 1.50012 1.5 5.42512 1.5 10.2501C1.5 15.0751 5.425 19.0001 10.25 19.0001C15.075 19.0001 19 15.0751 19 10.2501C19 5.42512 15.075 1.50012 10.25 1.50012ZM10.25 20.5001C4.598 20.5001 0 15.9021 0 10.2501C0 4.59812 4.598 0.00012207 10.25 0.00012207C15.902 0.00012207 20.5 4.59812 20.5 10.2501C20.5 15.9021 15.902 20.5001 10.25 20.5001Z" fill="white"/>
<path fill-rule="evenodd" clip-rule="evenodd" d="M10.4165 14.827C10.0025 14.827 9.6665 14.491 9.6665 14.077V6.75C9.6665 6.336 10.0025 6 10.4165 6C10.8305 6 11.1665 6.336 11.1665 6.75V14.077C11.1665 14.491 10.8305 14.827 10.4165 14.827" fill="white"/>
<path fill-rule="evenodd" clip-rule="evenodd" d="M14.083 11.163H6.75C6.335 11.163 6 10.827 6 10.413C6 9.99896 6.335 9.66296 6.75 9.66296H14.083C14.497 9.66296 14.833 9.99896 14.833 10.413C14.833 10.827 14.497 11.163 14.083 11.163" fill="white"/>
</svg>
