<svg width="24" height="24" viewBox="0 0 24 24" fill="none" xmlns="http://www.w3.org/2000/svg">
<path d="M11.9909 1.9989C8.43863 1.9989 5.99093 4.44691 5.99093 7.99892C5.99093 8.48392 5.99093 9.96893 5.99093 9.99893C5.99093 10.3209 5.82833 10.5399 5.27213 10.9989C5.20903 11.0509 4.94453 11.2779 4.86593 11.3429C3.60053 12.3889 2.97773 13.3689 2.99093 14.9989C3.00423 16.6469 4.34763 17.98 5.99093 17.999H9.16693C9.16693 17.999 8.99093 18.61 8.99093 18.999C8.99093 20.656 10.3339 21.999 11.9909 21.999C13.6479 21.999 14.9909 20.656 14.9909 18.999C14.9909 18.61 14.8229 17.999 14.8229 17.999H17.9909C19.6309 18.005 20.9929 16.6539 20.9909 14.9989C20.9889 13.3809 20.3649 12.3839 19.1159 11.3429C19.0339 11.2739 18.7439 11.0529 18.6779 10.9989C18.1339 10.5449 17.9909 10.3169 17.9909 9.99893C17.9909 8.74892 17.9909 7.99892 17.9909 7.99892C17.9909 4.44691 15.5429 1.9989 11.9909 1.9989ZM11.9909 3.99891C14.4389 3.99891 15.9909 5.55091 15.9909 7.99892C15.9909 7.99892 15.9909 8.74892 15.9909 9.99893C15.9909 11.0609 16.4389 11.7309 17.3969 12.5299C17.4729 12.5929 17.7939 12.8449 17.8659 12.9049C18.7039 13.6039 18.9899 14.0769 18.9909 14.9989C18.9919 15.5429 18.5259 16.0009 17.9909 15.9989C17.8019 15.9979 14.8909 15.9979 11.9909 15.9989C9.09123 15.9999 6.20343 16.0009 5.99093 15.9989C5.43273 15.9919 4.99543 15.5539 4.99093 14.9989C4.98353 14.0789 5.26943 13.6049 6.11593 12.9049C6.18503 12.8479 6.48073 12.5899 6.55343 12.5299C7.52663 11.7259 7.99093 11.0709 7.99093 9.99893C7.99093 9.96893 7.99093 8.48392 7.99093 7.99892C7.99093 5.55091 9.54323 3.99891 11.9909 3.99891ZM11.9909 17.999C12.5429 17.999 12.9909 18.447 12.9909 18.999C12.9909 19.551 12.5429 19.999 11.9909 19.999C11.4389 19.999 10.9909 19.551 10.9909 18.999C10.9909 18.447 11.4389 17.999 11.9909 17.999Z" fill="#2A343D"/>
</svg>
