<svg width="24" height="24" viewBox="0 0 24 24" fill="none" xmlns="http://www.w3.org/2000/svg">
<path d="M9.9989 1.95312C5.5806 1.95312 1.999 5.53513 1.9989 9.95313C1.9989 14.3711 5.5806 17.9531 9.9989 17.9531C11.8356 17.9531 13.5593 17.3041 14.9097 16.2631L19.2801 20.6721C19.6707 21.0621 20.3271 21.0621 20.7177 20.6721C21.1082 20.2811 21.1082 19.6251 20.7177 19.2341L16.3117 14.8581C17.3525 13.5081 17.9989 11.7901 17.9989 9.95313C17.9989 5.53513 14.4172 1.95312 9.9989 1.95312ZM9.9989 3.95313C13.3126 3.95313 15.9988 6.63913 15.9989 9.95313C15.9989 13.2671 13.3126 15.9531 9.9989 15.9531C6.6852 15.9531 3.999 13.2671 3.9989 9.95313C3.9989 6.63913 6.6852 3.95313 9.9989 3.95313Z" fill="#2A343D"/>
</svg>
