<svg width="24" height="24" viewBox="0 0 24 24" fill="none" xmlns="http://www.w3.org/2000/svg">
<path d="M12.0142 1.9989C6.49116 1.9989 2.01416 6.4759 2.01416 11.9989C2.01416 13.2709 2.27615 14.5599 2.73315 15.7179L3.51416 17.3109C4.00916 18.3399 3.83517 19.3099 3.17017 20.4989C2.80317 21.1569 3.26116 21.9499 4.01416 21.9679C5.03116 21.9909 6.72116 21.6669 8.01416 21.1869C9.20816 21.7379 10.6822 21.9989 12.0142 21.9989C17.5372 21.9989 22.0142 17.5219 22.0142 11.9989C22.0142 6.4759 17.5372 1.9989 12.0142 1.9989ZM12.0142 3.9989C16.4322 3.9989 20.0142 7.5809 20.0142 11.9989C20.0142 16.4169 16.4322 19.9989 12.0142 19.9989C10.8642 19.9989 9.41916 19.7029 8.51416 19.2179C8.24616 19.0739 7.91816 19.0359 7.63916 19.1549C7.00116 19.4279 6.35715 19.6329 5.60815 19.7799C5.90815 18.7289 5.81917 17.5259 5.29517 16.4369L4.54517 14.9049C4.21217 14.0529 4.01416 13.0189 4.01416 11.9989C4.01416 7.5809 7.59616 3.9989 12.0142 3.9989ZM8.01416 10.9989C7.46216 10.9989 7.01416 11.4469 7.01416 11.9989C7.01416 12.5509 7.46216 12.9989 8.01416 12.9989C8.56616 12.9989 9.01416 12.5509 9.01416 11.9989C9.01416 11.4469 8.56616 10.9989 8.01416 10.9989ZM12.0142 10.9989C11.4622 10.9989 11.0142 11.4469 11.0142 11.9989C11.0142 12.5509 11.4622 12.9989 12.0142 12.9989C12.5662 12.9989 13.0142 12.5509 13.0142 11.9989C13.0142 11.4469 12.5662 10.9989 12.0142 10.9989ZM16.0142 10.9989C15.4622 10.9989 15.0142 11.4469 15.0142 11.9989C15.0142 12.5509 15.4622 12.9989 16.0142 12.9989C16.5662 12.9989 17.0142 12.5509 17.0142 11.9989C17.0142 11.4469 16.5662 10.9989 16.0142 10.9989Z" fill="#2A343D"/>
</svg>
