<svg width="24" height="24" viewBox="0 0 24 24" fill="none" xmlns="http://www.w3.org/2000/svg">
<path d="M14.9908 2.92993C13.723 2.92993 12.5408 3.76195 12.1719 4.93195L3.99075 4.92993C3.43845 4.92993 2.99075 5.37793 2.99075 5.92993C2.99075 6.48193 3.43845 6.92993 3.99075 6.92993L12.1719 6.92896C12.62 8.15395 13.723 8.92993 14.9908 8.92993C16.2586 8.92993 17.3729 8.15196 17.8288 6.92096L19.9908 6.92993C20.5431 6.92993 20.9908 6.48193 20.9908 5.92993C20.9908 5.37793 20.5431 4.92993 19.9908 4.92993H17.8203C17.3388 3.71093 16.2586 2.92993 14.9908 2.92993ZM14.9908 4.92993C15.5431 4.92993 15.9908 5.37793 15.9908 5.92993C15.9908 6.48193 15.5431 6.92993 14.9908 6.92993C14.4385 6.92993 13.9908 6.48193 13.9908 5.92993C13.9908 5.37793 14.4385 4.92993 14.9908 4.92993ZM8.99075 8.92993C7.67275 8.92993 6.56955 9.74995 6.16675 10.9319C6.02615 10.9409 3.99075 10.9299 3.99075 10.9299C3.43845 10.9299 2.99075 11.3779 2.99075 11.9299C2.99075 12.4819 3.43845 12.9299 3.99075 12.9299C3.99075 12.9299 6.04315 12.9089 6.17105 12.9219C6.57385 14.1039 7.67275 14.9299 8.99075 14.9299C10.2586 14.9299 11.345 14.1529 11.8202 12.9329L19.9908 12.9299C20.5431 12.9299 20.9908 12.4819 20.9908 11.9299C20.9908 11.3779 20.5431 10.9299 19.9908 10.9299L11.815 10.921C11.3767 9.72796 10.2586 8.92993 8.99075 8.92993ZM8.99075 10.9299C9.54305 10.9299 9.99076 11.3779 9.99076 11.9299C9.99076 12.4819 9.54305 12.9299 8.99075 12.9299C8.43845 12.9299 7.99075 12.4819 7.99075 11.9299C7.99075 11.3779 8.43845 10.9299 8.99075 10.9299ZM14.9908 14.9299C13.723 14.9299 12.5633 15.7649 12.1712 16.9199L3.99075 16.9299C3.43845 16.9299 2.99075 17.3779 2.99075 17.9299C2.99075 18.4819 3.43845 18.9299 3.99075 18.9299L12.1564 18.9309C12.5713 20.1159 13.723 20.9299 14.9908 20.9299C16.2586 20.9299 17.3517 20.1369 17.8333 18.9309L19.9908 18.9299C20.5431 18.9299 20.9908 18.4819 20.9908 17.9299C20.9908 17.3779 20.5431 16.9299 19.9908 16.9299L17.8242 16.924C17.3925 15.741 16.2586 14.9299 14.9908 14.9299ZM14.9908 16.9299C15.5431 16.9299 15.9908 17.3779 15.9908 17.9299C15.9908 18.4819 15.5431 18.9299 14.9908 18.9299C14.4385 18.9299 13.9908 18.4819 13.9908 17.9299C13.9908 17.3779 14.4385 16.9299 14.9908 16.9299Z" fill="#2A343D"/>
</svg>
