<svg width="24" height="24" viewBox="0 0 24 24" fill="none" xmlns="http://www.w3.org/2000/svg">
<path d="M9.67106 4.13591C9.72616 3.55625 9.99539 3.01795 10.4262 2.62619C10.8569 2.23442 11.4183 2.01733 12.0006 2.01733C12.5828 2.01733 13.1442 2.23442 13.575 2.62619C14.0057 3.01795 14.275 3.55625 14.3301 4.13591C14.3632 4.51036 14.486 4.87133 14.6882 5.18825C14.8904 5.50517 15.1659 5.76872 15.4915 5.95658C15.8171 6.14445 16.1832 6.25111 16.5588 6.26753C16.9343 6.28395 17.3083 6.20964 17.6491 6.05091C18.1782 5.81069 18.7777 5.77593 19.3311 5.95339C19.8844 6.13086 20.3519 6.50786 20.6426 7.01101C20.9333 7.51417 21.0263 8.10748 20.9037 8.67548C20.7811 9.24348 20.4515 9.74552 19.9791 10.0839C19.6714 10.2998 19.4203 10.5865 19.247 10.9199C19.0736 11.2533 18.9831 11.6236 18.9831 11.9994C18.9831 12.3752 19.0736 12.7455 19.247 13.0789C19.4203 13.4123 19.6714 13.6991 19.9791 13.9149C20.4515 14.2533 20.7811 14.7553 20.9037 15.3233C21.0263 15.8913 20.9333 16.4846 20.6426 16.9878C20.3519 17.491 19.8844 17.868 19.3311 18.0454C18.7777 18.2229 18.1782 18.1881 17.6491 17.9479C17.3083 17.7892 16.9343 17.7149 16.5588 17.7313C16.1832 17.7477 15.8171 17.8544 15.4915 18.0422C15.1659 18.2301 14.8904 18.4936 14.6882 18.8106C14.486 19.1275 14.3632 19.4885 14.3301 19.8629C14.275 20.4426 14.0057 20.9809 13.575 21.3726C13.1442 21.7644 12.5828 21.9815 12.0006 21.9815C11.4183 21.9815 10.8569 21.7644 10.4262 21.3726C9.99539 20.9809 9.72616 20.4426 9.67106 19.8629C9.638 19.4883 9.51516 19.1272 9.31293 18.8102C9.11069 18.4931 8.83503 18.2295 8.50929 18.0416C8.18355 17.8537 7.81733 17.7471 7.44164 17.7308C7.06595 17.7145 6.69186 17.789 6.35106 17.9479C5.82195 18.1881 5.22239 18.2229 4.66906 18.0454C4.11573 17.868 3.64823 17.491 3.35754 16.9878C3.06685 16.4846 2.97377 15.8913 3.09642 15.3233C3.21907 14.7553 3.54866 14.2533 4.02106 13.9149C4.32868 13.6991 4.57979 13.4123 4.75315 13.0789C4.92651 12.7455 5.01701 12.3752 5.01701 11.9994C5.01701 11.6236 4.92651 11.2533 4.75315 10.9199C4.57979 10.5865 4.32868 10.2998 4.02106 10.0839C3.54932 9.74535 3.22031 9.2435 3.09796 8.67589C2.97561 8.10828 3.06867 7.51545 3.35904 7.01262C3.64942 6.50979 4.11637 6.13288 4.66915 5.95515C5.22193 5.77741 5.82104 5.81154 6.35006 6.05091C6.69082 6.20964 7.0648 6.28395 7.44036 6.26753C7.81592 6.25111 8.18199 6.14445 8.5076 5.95658C8.8332 5.76872 9.10875 5.50517 9.31093 5.18825C9.5131 4.87133 9.63594 4.51036 9.66906 4.13591M15.0001 12C15.0001 13.6569 13.6569 15 12.0001 15C10.3432 15 9.00006 13.6569 9.00006 12C9.00006 10.3431 10.3432 9 12.0001 9C13.6569 9 15.0001 10.3431 15.0001 12Z" stroke="white" stroke-width="2" stroke-linecap="round" stroke-linejoin="round"/>
</svg>
